<?xml version="1.0" standalone="no"?>
<!DOCTYPE svg PUBLIC "-//W3C//DTD SVG 20010904//EN"
 "http://www.w3.org/TR/2001/REC-SVG-20010904/DTD/svg10.dtd">
<svg version="1.0" xmlns="http://www.w3.org/2000/svg"
 width="1080.000000pt" height="1080.000000pt" viewBox="0 0 1080.000000 1080.000000"
 preserveAspectRatio="xMidYMid meet">

<g transform="translate(0.000000,1080.000000) scale(0.100000,-0.100000)"
fill="#000000" stroke="none">
<path d="M7080 10690 c0 -5 5 -10 10 -10 6 0 10 5 10 10 0 6 -4 10 -10 10 -5
0 -10 -4 -10 -10z"/>
<path d="M7534 10525 c35 -24 76 -33 76 -17 -1 10 -72 42 -95 42 -12 0 -6 -8
19 -25z"/>
<path d="M3940 9940 c0 -5 5 -10 10 -10 6 0 10 5 10 10 0 6 -4 10 -10 10 -5 0
-10 -4 -10 -10z"/>
<path d="M3567 9820 c3 -11 7 -20 9 -20 2 0 4 9 4 20 0 11 -4 20 -9 20 -5 0
-7 -9 -4 -20z"/>
<path d="M4059 9816 c15 -16 29 -22 40 -18 13 5 10 8 -11 16 -16 5 -28 13 -28
18 0 4 -5 8 -12 8 -6 0 -1 -11 11 -24z"/>
<path d="M5120 9800 c0 -5 5 -10 10 -10 6 0 10 5 10 10 0 6 -4 10 -10 10 -5 0
-10 -4 -10 -10z"/>
<path d="M3815 9641 c-2 -5 4 -11 15 -14 11 -3 20 -2 20 3 0 12 -28 21 -35 11z"/>
<path d="M3090 9630 c0 -5 5 -10 10 -10 6 0 10 5 10 10 0 6 -4 10 -10 10 -5 0
-10 -4 -10 -10z"/>
<path d="M3128 9563 c7 -3 16 -2 19 1 4 3 -2 6 -13 5 -11 0 -14 -3 -6 -6z"/>
<path d="M3705 9460 c-3 -5 3 -10 14 -10 11 0 23 5 26 10 3 6 -3 10 -14 10
-11 0 -23 -4 -26 -10z"/>
<path d="M8647 9447 c-3 -8 -1 -20 4 -28 6 -10 9 -7 9 14 0 29 -5 35 -13 14z"/>
<path d="M3060 9315 c0 -16 30 -35 54 -35 25 0 19 14 -13 33 -35 21 -41 21
-41 2z"/>
<path d="M7210 8760 c-12 -8 -12 -10 3 -16 21 -8 35 2 21 16 -5 5 -15 6 -24 0z"/>
<path d="M8241 8624 c0 -11 3 -14 6 -6 3 7 2 16 -1 19 -3 4 -6 -2 -5 -13z"/>
<path d="M7190 8603 c0 -13 5 -23 10 -23 13 0 13 11 0 30 -8 12 -10 11 -10 -7z"/>
<path d="M8512 8500 c0 -14 2 -19 5 -12 2 6 2 18 0 25 -3 6 -5 1 -5 -13z"/>
<path d="M8311 8444 c0 -11 3 -14 6 -6 3 7 2 16 -1 19 -3 4 -6 -2 -5 -13z"/>
<path d="M2255 8310 c-3 -5 3 -10 14 -10 11 0 23 5 26 10 3 6 -3 10 -14 10
-11 0 -23 -4 -26 -10z"/>
<path d="M7796 8179 c-4 -44 -5 -83 -2 -86 10 -11 26 9 26 34 0 14 8 32 18 39
16 12 16 13 0 19 -19 8 -24 40 -8 50 13 8 3 25 -14 25 -9 0 -16 -24 -20 -81z"/>
<path d="M2164 8175 c-19 -46 -18 -48 11 -23 14 12 25 30 25 40 0 30 -20 20
-36 -17z"/>
<path d="M9361 8084 c0 -11 3 -14 6 -6 3 7 2 16 -1 19 -3 4 -6 -2 -5 -13z"/>
<path d="M1358 8003 c7 -3 16 -2 19 1 4 3 -2 6 -13 5 -11 0 -14 -3 -6 -6z"/>
<path d="M1595 7981 c-7 -12 12 -24 25 -16 11 7 4 25 -10 25 -5 0 -11 -4 -15
-9z"/>
<path d="M4235 7971 c-3 -5 -1 -12 5 -16 13 -8 50 3 50 16 0 12 -47 12 -55 0z"/>
<path d="M4340 7950 c0 -11 4 -20 10 -20 5 0 14 9 20 20 9 17 8 20 -10 20 -13
0 -20 -7 -20 -20z"/>
<path d="M4545 7940 c3 -5 8 -10 11 -10 2 0 4 5 4 10 0 6 -5 10 -11 10 -5 0
-7 -4 -4 -10z"/>
<path d="M1940 7905 c0 -8 5 -15 10 -15 6 0 10 7 10 15 0 8 -4 15 -10 15 -5 0
-10 -7 -10 -15z"/>
<path d="M4920 7870 c0 -5 5 -10 10 -10 6 0 10 5 10 10 0 6 -4 10 -10 10 -5 0
-10 -4 -10 -10z"/>
<path d="M4240 7840 c0 -11 5 -20 10 -20 6 0 10 9 10 20 0 11 -4 20 -10 20 -5
0 -10 -9 -10 -20z"/>
<path d="M5084 7839 c-3 -5 18 -9 47 -9 29 0 50 2 48 4 -10 9 -90 13 -95 5z"/>
<path d="M5320 7800 c0 -5 6 -10 14 -10 8 0 18 5 21 10 3 6 -3 10 -14 10 -12
0 -21 -4 -21 -10z"/>
<path d="M4240 7756 c0 -34 16 -41 34 -15 18 26 13 39 -15 39 -14 0 -19 -7
-19 -24z"/>
<path d="M5525 7770 c-4 -6 6 -10 22 -10 22 0 25 2 13 10 -19 12 -27 12 -35 0z"/>
<path d="M5660 7740 c-12 -8 -10 -10 8 -10 13 0 20 4 17 10 -7 12 -6 12 -25 0z"/>
<path d="M5738 7733 c6 -2 18 -2 25 0 6 3 1 5 -13 5 -14 0 -19 -2 -12 -5z"/>
<path d="M6060 7690 c-14 -27 -5 -40 29 -40 39 0 44 10 19 37 -26 28 -34 29
-48 3z"/>
<path d="M4206 7631 c-3 -20 -6 -59 -6 -88 0 -28 -4 -55 -10 -58 -5 -3 -10
-16 -10 -28 1 -42 37 22 43 76 4 27 14 60 22 74 21 31 16 56 -11 58 -18 1 -23
-5 -28 -34z"/>
<path d="M6218 7653 c-25 -6 -22 -18 7 -37 29 -19 45 -14 45 14 0 14 -24 35
-33 29 -1 -1 -10 -3 -19 -6z"/>
<path d="M2903 7585 c-21 -24 -21 -25 -2 -25 20 0 34 21 27 39 -1 6 -13 -1
-25 -14z"/>
<path d="M6345 7600 c-3 -5 3 -10 15 -10 12 0 18 5 15 10 -3 6 -10 10 -15 10
-5 0 -12 -4 -15 -10z"/>
<path d="M7695 7600 c-4 -6 7 -10 25 -10 18 0 29 4 25 10 -3 6 -15 10 -25 10
-10 0 -22 -4 -25 -10z"/>
<path d="M9520 7600 c0 -5 5 -10 10 -10 6 0 10 5 10 10 0 6 -4 10 -10 10 -5 0
-10 -4 -10 -10z"/>
<path d="M6408 7563 c6 -2 18 -2 25 0 6 3 1 5 -13 5 -14 0 -19 -2 -12 -5z"/>
<path d="M8170 7561 c0 -6 5 -13 10 -16 6 -3 10 1 10 9 0 9 -4 16 -10 16 -5 0
-10 -4 -10 -9z"/>
<path d="M3842 7500 c0 -14 2 -19 5 -12 2 6 2 18 0 25 -3 6 -5 1 -5 -13z"/>
<path d="M6242 7495 c0 -16 2 -22 5 -12 2 9 2 23 0 30 -3 6 -5 -1 -5 -18z"/>
<path d="M6575 7500 c-3 -5 1 -10 10 -10 9 0 13 5 10 10 -3 6 -8 10 -10 10 -2
0 -7 -4 -10 -10z"/>
<path d="M6104 7454 c-4 -14 -2 -30 5 -37 8 -8 11 -1 11 26 0 43 -7 48 -16 11z"/>
<path d="M6745 7470 c-3 -6 0 -13 9 -16 21 -8 26 -28 16 -63 -6 -24 -4 -33 11
-47 21 -19 21 -19 24 46 2 33 -3 51 -18 68 -22 24 -33 27 -42 12z"/>
<path d="M4205 7430 c3 -5 8 -10 11 -10 2 0 4 5 4 10 0 6 -5 10 -11 10 -5 0
-7 -4 -4 -10z"/>
<path d="M6680 7429 c0 -5 5 -7 10 -4 6 3 10 8 10 11 0 2 -4 4 -10 4 -5 0 -10
-5 -10 -11z"/>
<path d="M4770 7405 c-7 -9 -10 -18 -7 -21 10 -11 37 5 37 21 0 19 -14 19 -30
0z"/>
<path d="M2546 7243 c4 -16 15 -38 24 -50 15 -19 19 -21 24 -7 12 30 6 52 -19
68 -33 22 -36 20 -29 -11z"/>
<path d="M4717 7243 c-10 -9 -9 -51 2 -57 10 -7 33 42 26 55 -7 11 -19 12 -28
2z"/>
<path d="M1254 7174 c-10 -53 -5 -72 16 -59 12 7 14 115 2 115 -4 0 -12 -25
-18 -56z"/>
<path d="M8410 7138 c0 -51 2 -58 20 -58 23 0 26 13 6 29 -8 7 -12 20 -9 31 3
10 0 27 -6 37 -8 14 -10 6 -11 -39z"/>
<path d="M9631 7164 c0 -11 3 -14 6 -6 3 7 2 16 -1 19 -3 4 -6 -2 -5 -13z"/>
<path d="M7190 7160 c0 -5 5 -10 11 -10 5 0 7 5 4 10 -3 6 -8 10 -11 10 -2 0
-4 -4 -4 -10z"/>
<path d="M1142 7042 c-21 -16 -22 -20 -8 -31 19 -16 66 -7 66 12 0 13 -19 37
-29 37 -4 0 -16 -9 -29 -18z"/>
<path d="M6822 7030 c0 -14 2 -19 5 -12 2 6 2 18 0 25 -3 6 -5 1 -5 -13z"/>
<path d="M1256 7018 c-8 -33 -8 -35 13 -41 11 -2 21 -15 23 -28 3 -26 28 -39
28 -15 0 9 5 16 10 16 7 0 7 4 0 13 -72 83 -67 80 -74 55z"/>
<path d="M2632 7028 c-6 -9 -4 -19 9 -32 19 -19 19 -19 19 12 0 33 -11 41 -28
20z"/>
<path d="M4720 7013 c0 -18 2 -33 4 -33 9 0 13 39 5 51 -6 10 -9 4 -9 -18z"/>
<path d="M8482 7008 c2 -22 9 -34 21 -36 25 -5 22 40 -4 56 -19 12 -20 11 -17
-20z"/>
<path d="M7457 7003 c-4 -3 0 -13 8 -22 9 -9 22 -24 28 -34 12 -17 15 -17 26
-4 10 13 7 20 -16 41 -29 27 -36 30 -46 19z"/>
<path d="M4543 6988 c5 -15 55 -14 71 2 7 7 -3 10 -33 10 -30 0 -41 -4 -38
-12z"/>
<path d="M6823 6945 c0 -22 2 -30 4 -17 2 12 2 30 0 40 -3 9 -5 -1 -4 -23z"/>
<path d="M2380 6930 c-21 -13 0 -31 28 -24 12 4 22 13 22 20 0 16 -28 18 -50
4z"/>
<path d="M6113 6870 c0 -41 2 -58 4 -37 2 20 2 54 0 75 -2 20 -4 3 -4 -38z"/>
<path d="M4168 6907 c-11 -16 -13 -28 -6 -40 14 -26 26 -21 33 14 9 41 -7 57
-27 26z"/>
<path d="M6311 6884 c0 -11 3 -14 6 -6 3 7 2 16 -1 19 -3 4 -6 -2 -5 -13z"/>
<path d="M4752 6860 c0 -14 2 -19 5 -12 2 6 2 18 0 25 -3 6 -5 1 -5 -13z"/>
<path d="M9632 6840 c0 -19 2 -27 5 -17 2 9 2 25 0 35 -3 9 -5 1 -5 -18z"/>
<path d="M4547 6768 c-3 -35 -1 -67 4 -72 5 -6 9 17 9 62 0 40 -2 72 -4 72 -2
0 -6 -28 -9 -62z"/>
<path d="M6311 6814 c0 -11 3 -14 6 -6 3 7 2 16 -1 19 -3 4 -6 -2 -5 -13z"/>
<path d="M5948 6783 c6 -2 18 -2 25 0 6 3 1 5 -13 5 -14 0 -19 -2 -12 -5z"/>
<path d="M5992 6758 c5 -15 48 -24 48 -10 0 10 -23 22 -42 22 -5 0 -8 -6 -6
-12z"/>
<path d="M6088 6738 c-31 -11 -36 -25 -13 -34 9 -4 22 -18 30 -33 8 -14 14
-20 15 -13 0 6 6 12 14 12 21 0 29 17 16 32 -6 7 -16 20 -23 29 -9 13 -18 15
-39 7z"/>
<path d="M7531 6704 c0 -11 3 -14 6 -6 3 7 2 16 -1 19 -3 4 -6 -2 -5 -13z"/>
<path d="M2408 6683 c7 -3 16 -2 19 1 4 3 -2 6 -13 5 -11 0 -14 -3 -6 -6z"/>
<path d="M4181 6664 c0 -11 3 -14 6 -6 3 7 2 16 -1 19 -3 4 -6 -2 -5 -13z"/>
<path d="M2266 6655 c-4 -10 1 -15 14 -15 11 0 20 7 20 15 0 8 -6 15 -14 15
-8 0 -16 -7 -20 -15z"/>
<path d="M6197 6664 c-13 -13 -7 -24 14 -24 11 0 19 5 17 12 -5 14 -22 21 -31
12z"/>
<path d="M7533 6600 c0 -25 2 -35 4 -22 2 12 2 32 0 45 -2 12 -4 2 -4 -23z"/>
<path d="M8300 6601 c0 -11 5 -23 10 -26 6 -4 10 5 10 19 0 14 -4 26 -10 26
-5 0 -10 -9 -10 -19z"/>
<path d="M6305 6590 c-8 -13 15 -24 27 -12 6 6 4 11 -6 15 -8 3 -18 2 -21 -3z"/>
<path d="M8016 6568 c-9 -35 -7 -76 4 -83 6 -3 10 -15 10 -26 0 -10 4 -19 9
-19 6 0 9 19 9 42 0 23 5 44 11 46 17 6 13 27 -7 45 -24 22 -28 21 -36 -5z"/>
<path d="M6358 6573 c-24 -6 -23 -30 2 -38 11 -3 20 -12 20 -20 0 -7 7 -12 15
-11 9 1 15 5 15 9 -2 19 -23 67 -28 66 -4 -1 -15 -3 -24 -6z"/>
<path d="M4850 6554 c0 -8 5 -12 10 -9 6 4 8 11 5 16 -9 14 -15 11 -15 -7z"/>
<path d="M8652 6535 c0 -16 2 -22 5 -12 2 9 2 23 0 30 -3 6 -5 -1 -5 -18z"/>
<path d="M2346 6531 c-4 -7 -5 -15 -2 -18 9 -9 19 4 14 18 -4 11 -6 11 -12 0z"/>
<path d="M4212 6480 c0 -14 2 -19 5 -12 2 6 2 18 0 25 -3 6 -5 1 -5 -13z"/>
<path d="M9531 6474 c0 -11 3 -14 6 -6 3 7 2 16 -1 19 -3 4 -6 -2 -5 -13z"/>
<path d="M6410 6449 c0 -11 4 -18 10 -14 5 3 7 12 3 20 -7 21 -13 19 -13 -6z"/>
<path d="M6106 6442 c-2 -4 -1 -14 5 -22 7 -12 9 -10 9 8 0 23 -5 28 -14 14z"/>
<path d="M3637 6395 c-4 -8 -2 -17 3 -20 6 -4 10 3 10 14 0 25 -6 27 -13 6z"/>
<path d="M7560 6380 c0 -19 3 -21 12 -12 9 9 9 15 0 24 -9 9 -12 7 -12 -12z"/>
<path d="M6580 6380 c0 -5 5 -10 10 -10 6 0 10 5 10 10 0 6 -4 10 -10 10 -5 0
-10 -4 -10 -10z"/>
<path d="M8270 6378 c0 -7 5 -20 10 -28 8 -12 10 -9 10 13 0 15 -4 27 -10 27
-5 0 -10 -6 -10 -12z"/>
<path d="M4503 6354 c-10 -27 12 -37 43 -21 l29 15 -28 11 c-36 14 -36 14 -44
-5z"/>
<path d="M4226 6327 c-16 -12 -16 -14 4 -32 18 -16 23 -17 31 -5 21 34 -3 60
-35 37z"/>
<path d="M2147 6313 c-4 -3 -7 -14 -7 -22 0 -9 -9 -22 -20 -29 -12 -7 -20 -23
-20 -41 0 -16 -6 -31 -15 -35 -16 -6 -22 -66 -6 -66 10 0 21 24 21 46 0 8 7
22 16 32 38 42 64 78 64 88 0 15 -25 36 -33 27z"/>
<path d="M8094 6277 c-8 -26 -7 -36 4 -47 19 -17 33 4 30 44 -4 41 -21 42 -34
3z"/>
<path d="M3630 6287 c0 -9 -5 -17 -10 -17 -18 0 -31 -51 -21 -79 8 -24 9 -25
16 -6 4 11 14 37 23 58 12 29 13 40 4 49 -9 9 -12 8 -12 -5z"/>
<path d="M4991 6284 c0 -11 3 -14 6 -6 3 7 2 16 -1 19 -3 4 -6 -2 -5 -13z"/>
<path d="M9261 6234 c0 -11 3 -14 6 -6 3 7 2 16 -1 19 -3 4 -6 -2 -5 -13z"/>
<path d="M4280 6159 c0 -11 5 -17 10 -14 6 3 10 13 10 21 0 8 -4 14 -10 14 -5
0 -10 -9 -10 -21z"/>
<path d="M4535 6161 c-3 -6 -28 -7 -56 -4 -43 5 -53 3 -71 -17 -17 -18 -28
-21 -59 -17 -25 3 -42 1 -47 -7 -13 -22 -53 -44 -71 -39 -10 3 -32 -2 -49 -11
-17 -9 -39 -16 -49 -16 -10 0 -31 -7 -48 -16 -16 -9 -41 -20 -55 -23 -19 -6
-6 -10 49 -15 43 -4 76 -4 80 2 8 12 164 22 182 12 8 -6 19 -2 29 10 14 16 19
16 40 4 14 -7 33 -13 42 -14 9 0 30 -12 47 -26 24 -20 38 -24 57 -20 22 6 25
11 20 31 -8 31 7 32 26 3 17 -26 48 -19 48 12 0 15 7 20 25 20 18 0 25 5 25
20 0 22 -10 26 -27 9 -6 -6 -23 -9 -39 -7 -31 3 -33 12 -18 71 5 23 3 27 -14
27 -12 0 -24 5 -27 10 -8 13 -32 13 -40 1z m25 -121 c0 -5 -4 -10 -10 -10 -5
0 -10 5 -10 10 0 6 5 10 10 10 6 0 10 -4 10 -10z"/>
<path d="M7560 6130 c0 -35 9 -38 33 -10 16 18 15 20 -3 30 -27 15 -30 13 -30
-20z"/>
<path d="M455 6140 c-3 -5 -2 -10 4 -10 5 0 13 5 16 10 3 6 2 10 -4 10 -5 0
-13 -4 -16 -10z"/>
<path d="M4088 6133 c7 -3 16 -2 19 1 4 3 -2 6 -13 5 -11 0 -14 -3 -6 -6z"/>
<path d="M3958 6113 c-10 -2 -18 -9 -18 -14 0 -5 -10 -14 -22 -19 -23 -9 -23
-9 -2 -9 12 -1 35 6 50 14 16 8 37 15 46 15 9 0 20 5 23 10 6 10 -43 12 -77 3z"/>
<path d="M4068 6113 c7 -3 16 -2 19 1 4 3 -2 6 -13 5 -11 0 -14 -3 -6 -6z"/>
<path d="M4645 6110 c3 -5 8 -10 11 -10 2 0 4 5 4 10 0 6 -5 10 -11 10 -5 0
-7 -4 -4 -10z"/>
<path d="M8140 6068 c0 -21 2 -38 4 -38 9 0 12 50 5 62 -6 8 -9 -1 -9 -24z"/>
<path d="M5767 6067 c-3 -8 -1 -20 4 -28 6 -10 9 -7 9 14 0 29 -5 35 -13 14z"/>
<path d="M3820 6040 l-25 -21 30 7 c39 9 47 13 40 25 -9 13 -17 11 -45 -11z"/>
<path d="M8336 6052 c-4 -6 -4 -22 0 -36 3 -14 1 -47 -6 -74 -9 -38 -8 -66 2
-128 9 -54 11 -107 6 -167 -6 -73 -5 -96 10 -135 14 -35 16 -57 10 -87 -15
-69 26 -117 43 -52 4 14 3 46 -3 69 -13 56 -2 197 17 218 19 21 19 64 0 80 -8
7 -15 18 -15 26 0 7 -8 17 -17 22 -14 8 -17 31 -21 128 -4 117 -12 158 -26
136z"/>
<path d="M5596 6042 c-8 -13 5 -42 29 -62 14 -12 18 -11 26 1 14 22 11 29 -15
39 -13 5 -26 14 -28 21 -3 10 -6 10 -12 1z"/>
<path d="M6065 6010 c-3 -5 1 -10 10 -10 9 0 13 5 10 10 -3 6 -8 10 -10 10 -2
0 -7 -4 -10 -10z"/>
<path d="M3734 6002 c5 -8 66 -4 66 4 0 2 -16 4 -36 4 -19 0 -33 -4 -30 -8z"/>
<path d="M8170 5999 c0 -5 5 -7 10 -4 6 3 10 8 10 11 0 2 -4 4 -10 4 -5 0 -10
-5 -10 -11z"/>
<path d="M345 5981 c-3 -5 -1 -12 5 -16 12 -7 30 2 30 16 0 12 -27 12 -35 0z"/>
<path d="M4375 5980 c-4 -6 -3 -16 3 -22 6 -6 12 -6 17 2 4 6 3 16 -3 22 -6 6
-12 6 -17 -2z"/>
<path d="M4644 5958 c3 -13 5 -27 5 -32 1 -5 4 -6 8 -3 4 4 13 -7 22 -25 l15
-33 4 27 c2 17 -5 38 -19 58 -27 36 -41 39 -35 8z"/>
<path d="M3595 5916 c-4 -25 -3 -57 2 -73 l10 -28 18 29 c15 23 16 32 7 47 -7
10 -12 28 -12 38 0 40 -19 30 -25 -13z"/>
<path d="M316 5935 c-3 -8 -1 -15 4 -15 6 0 10 7 10 15 0 8 -2 15 -4 15 -2 0
-6 -7 -10 -15z"/>
<path d="M4400 5946 c0 -2 7 -9 15 -16 13 -11 14 -10 9 4 -5 14 -24 23 -24 12z"/>
<path d="M5660 5940 c0 -5 5 -10 10 -10 6 0 10 5 10 10 0 6 -4 10 -10 10 -5 0
-10 -4 -10 -10z"/>
<path d="M8173 5915 c0 -22 2 -30 4 -17 2 12 2 30 0 40 -3 9 -5 -1 -4 -23z"/>
<path d="M2784 5909 c-3 -6 -1 -16 5 -22 8 -8 11 -5 11 11 0 24 -5 28 -16 11z"/>
<path d="M4436 5912 c-3 -6 -1 -14 5 -17 15 -10 25 3 12 16 -7 7 -13 7 -17 1z"/>
<path d="M5356 5911 c-4 -5 -2 -12 3 -15 5 -4 12 -2 15 3 4 5 2 12 -3 15 -5 4
-12 2 -15 -3z"/>
<path d="M3122 5883 c-12 -20 -4 -49 24 -90 24 -36 34 -28 34 28 0 55 -39 96
-58 62z"/>
<path d="M5700 5870 c0 -19 3 -21 12 -12 9 9 9 15 0 24 -9 9 -12 7 -12 -12z"/>
<path d="M6007 5883 c-14 -13 39 -48 76 -49 20 0 37 3 37 8 0 4 -10 8 -23 8
-12 0 -28 9 -35 20 -12 19 -42 27 -55 13z"/>
<path d="M6851 5874 c0 -11 3 -14 6 -6 3 7 2 16 -1 19 -3 4 -6 -2 -5 -13z"/>
<path d="M7595 5852 c-3 -21 -7 -47 -9 -60 -2 -13 1 -43 6 -68 9 -43 11 -45
28 -29 10 9 21 38 25 66 6 42 4 52 -11 64 -29 21 -8 30 36 15 50 -16 58 -10
28 23 -17 18 -34 25 -60 25 -35 0 -38 -2 -43 -36z"/>
<path d="M276 5855 c-3 -8 -1 -15 3 -15 5 0 11 7 15 15 3 8 1 15 -3 15 -5 0
-11 -7 -15 -15z"/>
<path d="M4712 5839 c1 -13 8 -23 13 -21 15 3 12 35 -3 40 -9 3 -13 -3 -10
-19z"/>
<path d="M2761 5774 c0 -11 3 -14 6 -6 3 7 2 16 -1 19 -3 4 -6 -2 -5 -13z"/>
<path d="M3630 5771 c-6 -13 -21 -21 -36 -21 -31 0 -28 -16 8 -43 26 -19 26
-19 57 4 24 17 31 30 29 49 -4 33 -42 40 -58 11z"/>
<path d="M8170 5761 c0 -17 5 -31 10 -31 6 0 10 11 10 24 0 14 -4 28 -10 31
-6 4 -10 -7 -10 -24z"/>
<path d="M210 5759 c0 -7 -7 -17 -16 -24 -17 -12 -28 -65 -14 -65 12 0 50 64
50 84 0 9 -4 16 -10 16 -5 0 -10 -5 -10 -11z"/>
<path d="M5975 5743 c0 -35 -43 -49 -99 -31 -33 10 -40 10 -50 -3 -6 -9 -23
-19 -38 -23 -43 -10 -33 -23 22 -28 33 -3 59 -13 74 -27 l23 -21 25 20 c31 24
42 25 58 5 17 -21 25 -19 40 10 14 27 67 49 93 39 11 -4 16 -14 13 -29 -4 -20
2 -24 37 -34 27 -6 43 -7 45 -1 6 17 36 10 65 -14 17 -14 37 -21 51 -19 12 3
40 -6 62 -18 34 -20 68 -26 149 -29 11 0 57 2 103 5 l82 6 45 -42 c45 -43 56
-74 33 -97 -7 -7 -21 -12 -32 -12 -37 0 -96 -33 -96 -53 0 -14 3 -17 13 -9 25
21 82 24 125 7 40 -16 42 -16 67 3 l26 21 -21 11 -22 12 22 23 c18 20 19 24 7
37 -9 8 -13 25 -10 40 6 33 -22 98 -42 98 -9 0 -25 -5 -35 -10 -16 -8 -22 -6
-36 15 -13 21 -24 25 -63 25 -25 0 -57 1 -71 2 -14 1 -39 -1 -56 -4 -16 -3
-43 0 -60 6 l-29 13 23 12 c29 15 28 31 -2 31 -35 0 -158 40 -178 57 -10 9
-30 15 -45 15 -217 -8 -241 -7 -298 11 -18 6 -21 3 -20 -20z m260 -37 c11 -7
50 -17 87 -20 37 -4 70 -11 73 -16 8 -14 -56 -28 -114 -27 -45 2 -55 6 -62 24
-4 11 -12 24 -18 28 -11 6 -6 25 7 25 4 0 16 -6 27 -14z"/>
<path d="M5665 5740 c-3 -5 -1 -10 4 -10 6 0 11 5 11 10 0 6 -2 10 -4 10 -3 0
-8 -4 -11 -10z"/>
<path d="M4740 5710 c-12 -8 -12 -10 3 -16 21 -8 35 2 21 16 -5 5 -15 6 -24 0z"/>
<path d="M4551 5688 c-1 -35 -42 -49 -70 -24 -21 19 -41 21 -41 4 1 -31 17
-39 71 -36 l54 3 -6 40 c-5 29 -7 33 -8 13z"/>
<path d="M5018 5703 c7 -3 16 -2 19 1 4 3 -2 6 -13 5 -11 0 -14 -3 -6 -6z"/>
<path d="M140 5629 c0 -11 5 -17 10 -14 6 3 10 13 10 21 0 8 -4 14 -10 14 -5
0 -10 -9 -10 -21z"/>
<path d="M6851 5634 c0 -11 3 -14 6 -6 3 7 2 16 -1 19 -3 4 -6 -2 -5 -13z"/>
<path d="M8875 5608 c-4 -18 -11 -38 -16 -44 -13 -16 -16 -68 -4 -74 6 -3 11
10 13 28 2 18 10 36 18 39 9 3 14 20 14 44 0 47 -16 51 -25 7z"/>
<path d="M118 5614 c-5 -4 -8 -19 -8 -33 1 -23 2 -24 11 -8 11 19 9 53 -3 41z"/>
<path d="M4212 5401 c4 -13 18 -16 19 -4 0 4 -5 9 -11 12 -7 2 -11 -2 -8 -8z"/>
<path d="M4255 5390 c-3 -5 3 -10 14 -10 12 0 21 5 21 10 0 6 -6 10 -14 10 -8
0 -18 -4 -21 -10z"/>
<path d="M3695 5379 c-10 -26 12 -69 35 -69 26 0 25 18 -5 55 -19 23 -25 26
-30 14z"/>
<path d="M8511 5358 c-1 -16 4 -28 9 -28 12 0 12 8 0 35 -8 18 -9 17 -9 -7z"/>
<path d="M3845 5330 c-4 -6 15 -10 49 -10 31 0 56 5 56 10 0 6 -22 10 -49 10
-28 0 -53 -4 -56 -10z"/>
<path d="M6960 5330 c0 -5 4 -10 9 -10 6 0 13 5 16 10 3 6 -1 10 -9 10 -9 0
-16 -4 -16 -10z"/>
<path d="M4205 5300 c-3 -5 1 -10 9 -10 9 0 16 5 16 10 0 6 -4 10 -9 10 -6 0
-13 -4 -16 -10z"/>
<path d="M6444 5296 c-13 -35 2 -44 82 -48 99 -4 194 2 194 12 0 4 -30 11 -67
15 -38 4 -75 11 -84 15 -8 5 -39 12 -67 16 -43 5 -53 4 -58 -10z"/>
<path d="M3727 5274 c-9 -10 2 -24 19 -24 8 0 14 7 14 15 0 15 -21 21 -33 9z"/>
<path d="M4069 5264 c-47 -14 -77 -38 -61 -48 14 -9 52 5 52 20 0 7 12 16 28
20 47 10 47 10 37 16 -6 3 -31 -1 -56 -8z"/>
<path d="M6806 5255 c-21 -31 -20 -35 3 -35 11 0 26 -7 35 -15 24 -24 32 18 9
49 -23 32 -27 32 -47 1z"/>
<path d="M7701 5264 c0 -11 3 -14 6 -6 3 7 2 16 -1 19 -3 4 -6 -2 -5 -13z"/>
<path d="M8900 5270 c-8 -5 -11 -12 -8 -16 10 -9 38 3 38 16 0 12 -10 13 -30
0z"/>
<path d="M1520 5260 c0 -5 7 -10 15 -10 8 0 15 5 15 10 0 6 -7 10 -15 10 -8 0
-15 -4 -15 -10z"/>
<path d="M8412 5225 c0 -16 2 -22 5 -12 2 9 2 23 0 30 -3 6 -5 -1 -5 -18z"/>
<path d="M8551 5234 c0 -11 3 -14 6 -6 3 7 2 16 -1 19 -3 4 -6 -2 -5 -13z"/>
<path d="M2721 5204 c0 -11 3 -14 6 -6 3 7 2 16 -1 19 -3 4 -6 -2 -5 -13z"/>
<path d="M8858 5193 c7 -3 16 -2 19 1 4 3 -2 6 -13 5 -11 0 -14 -3 -6 -6z"/>
<path d="M3558 5173 c-10 -2 -18 -10 -18 -17 0 -7 -10 -18 -22 -25 -20 -10
-18 -11 15 -6 23 4 44 1 52 -5 8 -7 19 -9 25 -5 12 8 13 55 1 55 -5 0 -15 2
-23 4 -7 2 -21 2 -30 -1z"/>
<path d="M7697 5173 c-13 -12 -7 -42 9 -51 24 -14 29 -89 9 -142 -34 -89 -30
-133 8 -106 19 15 39 101 31 134 -4 13 2 28 15 41 28 28 27 49 -4 63 -14 6
-30 24 -37 40 -13 29 -20 33 -31 21z"/>
<path d="M8581 5097 c-1 -65 2 -81 19 -99 18 -20 20 -20 20 -4 0 10 -8 40 -17
68 -16 43 -16 50 -3 58 9 6 10 10 3 10 -6 0 -14 10 -16 23 -2 12 -5 -13 -6
-56z"/>
<path d="M3793 5148 c-6 -7 -13 -21 -16 -30 -5 -13 -17 -18 -45 -18 -45 0 -55
-6 -42 -29 6 -12 21 -17 49 -16 22 0 43 4 47 8 4 4 16 7 27 7 13 0 17 -5 13
-16 -3 -9 -6 -19 -6 -24 0 -4 -14 -17 -31 -28 l-31 -19 26 -7 c14 -3 38 -3 52
0 14 4 43 1 63 -6 29 -9 43 -10 60 -1 28 16 21 25 -42 55 -65 31 -94 62 -79
87 8 13 7 21 -7 33 -21 19 -26 20 -38 4z"/>
<path d="M8411 5094 c0 -11 3 -14 6 -6 3 7 2 16 -1 19 -3 4 -6 -2 -5 -13z"/>
<path d="M1834 5058 c-13 -42 4 -101 22 -77 7 10 7 29 -1 63 l-11 49 -10 -35z"/>
<path d="M3570 5070 c-1 -3 -4 -39 -6 -80 -3 -89 4 -156 17 -143 5 5 5 56 0
118 -4 61 -9 108 -11 105z"/>
<path d="M3707 4963 c-4 -3 -7 -15 -7 -26 0 -19 1 -20 20 -2 11 10 20 22 20
27 0 10 -24 11 -33 1z"/>
<path d="M8335 4961 c-3 -5 -1 -12 5 -16 5 -3 10 1 10 9 0 18 -6 21 -15 7z"/>
<path d="M2139 4898 c0 -7 0 -37 1 -66 1 -29 -3 -59 -9 -66 -11 -13 6 -76 20
-76 3 0 6 50 5 110 0 61 -4 110 -8 110 -5 0 -8 -6 -9 -12z"/>
<path d="M8445 4890 c-3 -5 -1 -10 4 -10 6 0 11 5 11 10 0 6 -2 10 -4 10 -3 0
-8 -4 -11 -10z"/>
<path d="M3360 4851 c0 -25 6 -27 13 -6 4 8 2 17 -3 20 -6 4 -10 -3 -10 -14z"/>
<path d="M6818 4806 c-7 -60 -1 -90 12 -65 4 8 4 39 1 69 l-7 55 -6 -59z"/>
<path d="M2752 4820 c0 -14 2 -19 5 -12 2 6 2 18 0 25 -3 6 -5 1 -5 -13z"/>
<path d="M8312 4820 c0 -14 2 -19 5 -12 2 6 2 18 0 25 -3 6 -5 1 -5 -13z"/>
<path d="M3601 4714 c0 -11 3 -14 6 -6 3 7 2 16 -1 19 -3 4 -6 -2 -5 -13z"/>
<path d="M3333 4665 c0 -33 2 -45 4 -27 2 18 2 45 0 60 -2 15 -4 0 -4 -33z"/>
<path d="M7702 4675 c0 -16 2 -22 5 -12 2 9 2 23 0 30 -3 6 -5 -1 -5 -18z"/>
<path d="M2754 4594 c-2 -8 -6 -21 -9 -29 -7 -24 15 -29 31 -7 8 11 24 22 35
24 16 2 12 6 -16 14 -30 9 -37 9 -41 -2z"/>
<path d="M3639 4577 c-10 -21 -4 -31 64 -100 41 -42 83 -77 93 -77 9 0 25 -6
33 -14 21 -19 53 -24 58 -9 2 6 -5 14 -16 18 -12 3 -34 25 -50 48 -33 48 -145
157 -161 157 -6 0 -15 -10 -21 -23z"/>
<path d="M2278 4583 c7 -3 16 -2 19 1 4 3 -2 6 -13 5 -11 0 -14 -3 -6 -6z"/>
<path d="M2676 4529 c-8 -12 -36 -44 -61 -71 -31 -31 -41 -48 -31 -48 9 0 16
4 16 9 0 5 18 12 40 16 45 8 70 35 70 77 0 36 -15 43 -34 17z"/>
<path d="M2920 4519 c0 -5 5 -7 10 -4 6 3 10 8 10 11 0 2 -4 4 -10 4 -5 0 -10
-5 -10 -11z"/>
<path d="M8340 4515 c0 -9 5 -15 11 -13 6 2 11 8 11 13 0 5 -5 11 -11 13 -6 2
-11 -4 -11 -13z"/>
<path d="M8581 4494 c0 -11 3 -14 6 -6 3 7 2 16 -1 19 -3 4 -6 -2 -5 -13z"/>
<path d="M2776 4491 c-3 -4 1 -17 9 -27 8 -10 15 -14 15 -7 0 6 3 18 6 27 6
17 -20 23 -30 7z"/>
<path d="M3332 4465 c0 -16 2 -22 5 -12 2 9 2 23 0 30 -3 6 -5 -1 -5 -18z"/>
<path d="M2171 4466 c-11 -13 -10 -17 3 -22 22 -8 30 1 19 21 -9 15 -11 15
-22 1z"/>
<path d="M6765 4420 c-29 -11 -59 -47 -46 -55 19 -11 45 4 58 32 15 31 14 33
-12 23z"/>
<path d="M7660 4415 c0 -8 5 -15 10 -15 6 0 10 7 10 15 0 8 -4 15 -10 15 -5 0
-10 -7 -10 -15z"/>
<path d="M2445 4410 c4 -6 11 -8 16 -5 14 9 11 15 -7 15 -8 0 -12 -5 -9 -10z"/>
<path d="M2551 4384 c0 -11 3 -14 6 -6 3 7 2 16 -1 19 -3 4 -6 -2 -5 -13z"/>
<path d="M2495 4360 c-4 -7 -3 -16 3 -22 14 -14 45 -2 40 15 -6 16 -34 21 -43
7z"/>
<path d="M8410 4351 c0 -12 5 -21 10 -21 6 0 10 6 10 14 0 8 -4 18 -10 21 -5
3 -10 -3 -10 -14z"/>
<path d="M8703 4359 c-8 -8 -6 -19 4 -41 19 -37 36 -24 27 20 -7 34 -13 39
-31 21z"/>
<path d="M3904 4345 c-4 -8 -3 -23 1 -32 6 -15 8 -16 13 -3 3 8 11 19 19 23 7
5 11 12 8 18 -9 14 -35 11 -41 -6z"/>
<path d="M6625 4325 c-11 -14 -26 -25 -32 -25 -7 0 -22 -9 -33 -20 -11 -11
-23 -20 -27 -20 -5 0 -25 -15 -45 -34 -31 -28 -68 -43 -123 -51 -16 -2 -68
-28 -94 -47 -13 -10 -32 -18 -42 -18 -11 0 -18 -6 -17 -12 2 -7 -5 -12 -14
-10 -10 1 -32 -5 -50 -15 -18 -9 -60 -26 -93 -38 -136 -48 -191 -84 -106 -70
22 4 48 2 59 -4 14 -7 24 -6 39 4 11 8 23 11 27 8 3 -3 6 8 6 25 0 30 2 32 38
32 24 1 47 9 66 24 16 14 35 22 43 19 15 -6 49 8 95 39 14 10 38 18 52 18 15
0 29 6 32 14 3 7 22 16 42 20 35 6 71 30 149 103 19 17 48 35 65 38 21 5 28
11 24 22 -3 8 -6 17 -6 19 0 14 -38 -1 -55 -21z"/>
<path d="M8030 4321 c0 -17 4 -32 9 -36 11 -6 19 22 13 48 -7 28 -22 20 -22
-12z"/>
<path d="M3317 4323 c-11 -10 -8 -43 3 -43 6 0 10 -8 11 -17 0 -16 1 -16 8 1
14 36 -3 79 -22 59z"/>
<path d="M2245 4310 c3 -5 8 -10 11 -10 2 0 4 5 4 10 0 6 -5 10 -11 10 -5 0
-7 -4 -4 -10z"/>
<path d="M4030 4280 c0 -5 7 -10 15 -10 8 0 15 5 15 10 0 6 -7 10 -15 10 -8 0
-15 -4 -15 -10z"/>
<path d="M8800 4280 c0 -5 9 -10 21 -10 11 0 17 5 14 10 -3 6 -13 10 -21 10
-8 0 -14 -4 -14 -10z"/>
<path d="M3937 4273 c-5 -7 -20 -13 -33 -13 -32 0 -27 -22 7 -30 18 -4 25 -14
29 -40 5 -30 6 -32 12 -12 4 15 14 22 32 22 14 0 26 3 26 8 0 10 -38 42 -49
42 -5 0 -11 8 -13 18 -3 12 -6 14 -11 5z"/>
<path d="M6759 4179 c-14 -14 -19 -29 -16 -47 3 -15 -2 -36 -13 -51 -11 -16
-21 -54 -24 -95 -4 -38 -13 -78 -21 -90 -18 -25 -19 -46 -2 -46 15 1 47 68 47
99 0 12 6 36 13 54 8 18 17 61 21 96 5 41 13 69 23 76 11 8 13 14 5 19 -6 4
-21 -3 -33 -15z"/>
<path d="M3435 4180 c3 -5 13 -10 21 -10 8 0 14 5 14 10 0 6 -9 10 -21 10 -11
0 -17 -4 -14 -10z"/>
<path d="M4070 4180 c0 -5 11 -10 25 -10 14 0 25 5 25 10 0 6 -11 10 -25 10
-14 0 -25 -4 -25 -10z"/>
<path d="M8071 4174 c0 -11 3 -14 6 -6 3 7 2 16 -1 19 -3 4 -6 -2 -5 -13z"/>
<path d="M8582 4155 c0 -16 2 -22 5 -12 2 9 2 23 0 30 -3 6 -5 -1 -5 -18z"/>
<path d="M4200 4155 c-11 -13 -9 -15 15 -15 16 0 25 5 23 12 -7 19 -24 20 -38
3z"/>
<path d="M3495 4140 c3 -5 8 -10 11 -10 2 0 4 5 4 10 0 6 -5 10 -11 10 -5 0
-7 -4 -4 -10z"/>
<path d="M3945 4140 c-4 -6 -9 -52 -12 -103 -3 -51 -10 -100 -15 -109 -5 -12
-4 -26 3 -40 7 -13 9 -41 5 -72 -5 -43 -2 -54 16 -73 34 -36 47 -29 45 25 -1
26 -6 53 -11 60 -5 9 -2 20 8 30 25 26 50 4 54 -47 2 -23 7 -39 12 -36 4 3 6
19 3 37 -3 23 0 36 12 44 15 11 14 15 -17 43 -22 20 -39 28 -52 25 -10 -4 -22
0 -26 7 -14 22 2 83 28 112 l26 27 -21 38 c-22 38 -46 51 -58 32z"/>
<path d="M4275 4126 c9 -13 29 -26 46 -30 16 -3 42 -17 57 -31 15 -14 43 -30
62 -36 19 -7 40 -15 45 -19 19 -14 42 -18 54 -10 17 10 -3 50 -25 50 -15 0
-87 29 -137 55 -16 8 -36 15 -46 15 -9 0 -26 7 -37 15 -28 22 -36 18 -19 -9z"/>
<path d="M2518 4043 c7 -3 16 -2 19 1 4 3 -2 6 -13 5 -11 0 -14 -3 -6 -6z"/>
<path d="M8481 4034 c0 -11 3 -14 6 -6 3 7 2 16 -1 19 -3 4 -6 -2 -5 -13z"/>
<path d="M4610 4010 c0 -5 5 -10 10 -10 6 0 10 5 10 10 0 6 -4 10 -10 10 -5 0
-10 -4 -10 -10z"/>
<path d="M4000 3980 c0 -19 3 -21 12 -12 9 9 9 15 0 24 -9 9 -12 7 -12 -12z"/>
<path d="M2675 3980 c-3 -5 3 -10 15 -10 12 0 18 5 15 10 -3 6 -10 10 -15 10
-5 0 -12 -4 -15 -10z"/>
<path d="M3682 3959 c-32 -12 -21 -25 27 -32 22 -3 48 -12 57 -21 8 -9 20 -14
25 -11 13 9 11 41 -3 52 -20 16 -80 23 -106 12z"/>
<path d="M4816 3952 c-3 -6 -1 -14 5 -17 15 -10 25 3 12 16 -7 7 -13 7 -17 1z"/>
<path d="M5868 3943 c7 -3 16 -2 19 1 4 3 -2 6 -13 5 -11 0 -14 -3 -6 -6z"/>
<path d="M3325 3921 c-3 -11 -3 -27 2 -34 7 -12 11 -11 26 3 16 16 16 18 -2
34 -18 17 -19 16 -26 -3z"/>
<path d="M5808 3933 c6 -2 18 -2 25 0 6 3 1 5 -13 5 -14 0 -19 -2 -12 -5z"/>
<path d="M6026 3925 c-9 -10 -15 -24 -12 -32 3 -8 6 -17 6 -19 0 -3 5 -2 11 2
9 5 10 -1 5 -20 -3 -14 -2 -26 3 -26 11 0 20 80 11 98 -5 11 -10 10 -24 -3z"/>
<path d="M4915 3910 c-3 -5 -3 -21 1 -35 5 -19 13 -25 33 -25 15 0 32 -5 38
-11 8 -8 14 -5 23 11 6 12 10 23 8 24 -8 6 -89 46 -93 46 -2 0 -6 -4 -10 -10z"/>
<path d="M5740 3910 c-22 -7 -21 -8 13 -9 20 -1 37 4 37 9 0 11 -14 11 -50 0z"/>
<path d="M8100 3911 c0 -6 5 -13 10 -16 6 -3 10 1 10 9 0 9 -4 16 -10 16 -5 0
-10 -4 -10 -9z"/>
<path d="M2891 3874 c0 -11 3 -14 6 -6 3 7 2 16 -1 19 -3 4 -6 -2 -5 -13z"/>
<path d="M5664 3879 c-3 -5 6 -9 20 -9 31 0 34 6 6 13 -11 3 -23 1 -26 -4z"/>
<path d="M4815 3841 c-3 -12 -11 -21 -16 -21 -15 0 -10 -19 10 -39 18 -18 19
-18 30 6 15 32 14 48 -3 62 -11 10 -16 8 -21 -8z"/>
<path d="M6653 3820 c3 -11 -2 -25 -10 -32 -9 -7 -27 -30 -40 -51 -23 -37 -23
-57 -1 -57 17 0 68 61 68 81 0 9 6 22 14 29 19 15 11 36 -16 43 -16 5 -19 2
-15 -13z"/>
<path d="M3328 3796 c-3 -17 -2 -39 2 -50 7 -20 9 -20 15 -3 4 10 3 32 -2 50
l-9 32 -6 -29z"/>
<path d="M5150 3777 c0 -21 70 -31 90 -12 13 13 11 15 -15 15 -17 0 -40 3 -52
6 -16 5 -23 2 -23 -9z"/>
<path d="M2943 3725 c-19 -21 -16 -34 6 -28 11 3 21 13 24 24 6 22 -12 25 -30
4z"/>
<path d="M6698 3691 c-31 -57 -34 -71 -14 -71 23 0 47 48 44 87 l-3 35 -27
-51z"/>
<path d="M6005 3711 c-3 -5 -1 -12 5 -16 5 -3 10 1 10 9 0 18 -6 21 -15 7z"/>
<path d="M8726 3711 c-4 -7 -5 -15 -2 -18 9 -9 19 4 14 18 -4 11 -6 11 -12 0z"/>
<path d="M1238 3703 c6 -2 18 -2 25 0 6 3 1 5 -13 5 -14 0 -19 -2 -12 -5z"/>
<path d="M4850 3670 c0 -19 3 -21 12 -12 9 9 9 15 0 24 -9 9 -12 7 -12 -12z"/>
<path d="M6013 3605 c0 -27 2 -38 4 -22 2 15 2 37 0 50 -2 12 -4 0 -4 -28z"/>
<path d="M6425 3640 c-3 -5 1 -10 9 -10 9 0 16 5 16 10 0 6 -4 10 -9 10 -6 0
-13 -4 -16 -10z"/>
<path d="M3361 3601 c-1 -32 2 -42 10 -34 7 7 7 21 1 44 l-10 34 -1 -44z"/>
<path d="M8748 3618 c-4 -21 -4 -160 0 -276 1 -27 6 -41 12 -37 7 4 9 38 5 88
-4 61 -1 89 10 111 15 29 10 60 -6 35 -5 -9 -8 6 -7 39 1 56 -7 78 -14 40z"/>
<path d="M4545 3621 c-5 -5 -21 -11 -34 -13 l-23 -3 20 -25 c19 -23 22 -24 37
-9 9 9 15 26 13 38 -2 15 -6 19 -13 12z"/>
<path d="M2957 3614 c-3 -4 0 -16 8 -28 8 -11 15 -30 16 -41 1 -33 35 -129 47
-133 14 -4 16 -32 3 -32 -13 0 -10 -91 4 -120 7 -14 15 -61 19 -104 3 -44 11
-83 18 -87 6 -4 13 -32 16 -63 2 -31 9 -56 15 -56 13 0 0 112 -14 121 -10 6
-21 108 -20 174 0 17 -6 45 -15 63 -14 29 -14 35 3 62 14 25 15 35 5 62 -6 18
-9 43 -6 54 4 15 -1 26 -16 37 -13 9 -17 17 -11 22 17 10 13 40 -7 58 -19 17
-53 23 -65 11z"/>
<path d="M8510 3535 c-3 -90 -3 -201 1 -220 7 -34 13 127 8 210 l-5 100 -4
-90z"/>
<path d="M4166 3595 c-7 -20 21 -32 37 -16 9 9 8 14 -3 21 -21 13 -27 12 -34
-5z"/>
<path d="M6406 3554 c-7 -18 0 -34 15 -34 12 0 12 37 0 44 -5 3 -12 -1 -15
-10z"/>
<path d="M6610 3550 c-9 -16 -8 -20 5 -20 8 0 15 7 15 16 0 8 4 13 9 9 5 -3
12 -1 16 5 3 5 -3 10 -14 10 -11 0 -25 -9 -31 -20z"/>
<path d="M4850 3537 c0 -10 10 -12 32 -9 28 4 30 6 13 13 -30 12 -45 10 -45
-4z"/>
<path d="M6552 3528 c-16 -16 -15 -41 1 -36 6 3 13 14 13 26 1 26 2 26 -14 10z"/>
<path d="M8138 3508 c-2 -7 -1 -31 3 -53 6 -40 6 -39 8 13 1 51 -3 65 -11 40z"/>
<path d="M3390 3500 c0 -5 5 -10 10 -10 6 0 10 5 10 10 0 6 -4 10 -10 10 -5 0
-10 -4 -10 -10z"/>
<path d="M4642 3473 c4 -36 33 -39 33 -3 0 16 -6 26 -18 28 -15 3 -18 -2 -15
-25z"/>
<path d="M6506 3443 c-8 -16 -28 -40 -45 -56 -45 -39 -40 -91 5 -54 50 39 64
61 64 98 0 46 -5 48 -24 12z"/>
<path d="M6030 3448 c0 -7 4 -19 9 -27 11 -17 25 3 17 24 -7 18 -26 20 -26 3z"/>
<path d="M6381 3394 c0 -11 3 -14 6 -6 3 7 2 16 -1 19 -3 4 -6 -2 -5 -13z"/>
<path d="M3427 3373 c-2 -4 -5 -22 -5 -39 0 -23 6 -34 28 -47 27 -17 28 -16
33 11 8 37 -40 102 -56 75z"/>
<path d="M3527 3359 c8 -8 16 -8 30 0 16 9 14 10 -11 11 -22 0 -27 -3 -19 -11z"/>
<path d="M4790 3360 c0 -5 7 -7 15 -4 8 4 15 8 15 10 0 2 -7 4 -15 4 -8 0 -15
-4 -15 -10z"/>
<path d="M6380 3324 c1 -36 2 -38 15 -20 19 25 19 31 0 46 -13 11 -15 7 -15
-26z"/>
<path d="M6140 3329 c0 -5 5 -7 10 -4 6 3 10 8 10 11 0 2 -4 4 -10 4 -5 0 -10
-5 -10 -11z"/>
<path d="M3736 3311 c-4 -7 -5 -15 -2 -18 9 -9 19 4 14 18 -4 11 -6 11 -12 0z"/>
<path d="M4580 3265 c0 -8 5 -15 10 -15 6 0 10 7 10 15 0 8 -4 15 -10 15 -5 0
-10 -7 -10 -15z"/>
<path d="M6088 3263 c7 -3 16 -2 19 1 4 3 -2 6 -13 5 -11 0 -14 -3 -6 -6z"/>
<path d="M6452 3220 c-27 -25 -29 -30 -13 -30 10 0 21 -7 25 -15 6 -15 28 -27
77 -38 19 -5 29 -2 33 8 7 19 -14 55 -32 55 -7 0 -23 11 -36 25 l-23 25 -31
-30z"/>
<path d="M4310 3225 c0 -9 6 -12 15 -9 8 4 15 10 15 15 0 5 -7 9 -15 9 -8 0
-15 -7 -15 -15z"/>
<path d="M6304 3231 c10 -16 46 -20 46 -5 0 8 -10 14 -26 14 -14 0 -23 -4 -20
-9z"/>
<path d="M2611 3188 c-5 -13 -5 -27 0 -32 11 -12 15 -8 23 27 8 33 -11 37 -23
5z"/>
<path d="M6670 3185 c-7 -8 -25 -15 -41 -15 -16 0 -29 -4 -29 -10 0 -5 6 -10
14 -10 7 0 19 -13 25 -29 l12 -29 31 28 c24 23 29 33 24 54 -7 30 -18 33 -36
11z"/>
<path d="M8482 3170 c0 -19 2 -27 5 -17 2 9 2 25 0 35 -3 9 -5 1 -5 -18z"/>
<path d="M3530 3165 c0 -8 5 -15 10 -15 6 0 10 7 10 15 0 8 -4 15 -10 15 -5 0
-10 -7 -10 -15z"/>
<path d="M4277 3174 c-4 -4 -7 -14 -7 -23 0 -11 3 -12 11 -4 6 6 10 16 7 23
-2 6 -7 8 -11 4z"/>
<path d="M3635 3160 c-3 -5 -1 -10 4 -10 6 0 11 5 11 10 0 6 -2 10 -4 10 -3 0
-8 -4 -11 -10z"/>
<path d="M8100 3124 c0 -8 5 -12 10 -9 6 3 10 10 10 16 0 5 -4 9 -10 9 -5 0
-10 -7 -10 -16z"/>
<path d="M3587 3104 c-9 -10 12 -46 24 -39 14 9 11 45 -4 45 -8 0 -17 -3 -20
-6z"/>
<path d="M9021 3094 c0 -11 3 -14 6 -6 3 7 2 16 -1 19 -3 4 -6 -2 -5 -13z"/>
<path d="M1671 3084 c0 -11 3 -14 6 -6 3 7 2 16 -1 19 -3 4 -6 -2 -5 -13z"/>
<path d="M4170 3092 c0 -5 9 -17 20 -27 16 -15 20 -30 19 -87 -1 -80 6 -97 16
-39 4 23 11 41 16 41 4 0 7 27 6 60 -1 33 -3 55 -5 50 -5 -13 -42 -13 -42 0 0
6 -7 10 -15 10 -8 0 -15 -4 -15 -8z"/>
<path d="M6888 3093 c6 -2 18 -2 25 0 6 3 1 5 -13 5 -14 0 -19 -2 -12 -5z"/>
<path d="M9970 3051 c0 -5 -9 -13 -20 -16 -11 -4 -18 -10 -15 -15 3 -5 13 -6
23 -3 27 10 44 43 22 43 -5 0 -10 -4 -10 -9z"/>
<path d="M7090 3031 c0 -14 5 -18 20 -14 11 3 20 7 20 9 0 2 -9 8 -20 14 -17
9 -20 8 -20 -9z"/>
<path d="M1673 2990 c0 -25 2 -35 4 -22 2 12 2 32 0 45 -2 12 -4 2 -4 -23z"/>
<path d="M7415 2970 c-4 -6 -1 -25 5 -41 10 -24 15 -27 27 -18 19 16 13 63 -9
67 -9 2 -19 -2 -23 -8z"/>
<path d="M2550 2955 c0 -17 2 -18 24 -9 23 9 20 24 -4 24 -11 0 -20 -7 -20
-15z"/>
<path d="M7480 2931 c0 -11 26 -22 34 -14 12 12 5 23 -14 23 -11 0 -20 -4 -20
-9z"/>
<path d="M8681 2924 c0 -11 3 -14 6 -6 3 7 2 16 -1 19 -3 4 -6 -2 -5 -13z"/>
<path d="M9810 2930 c-24 -8 -23 -8 8 -9 17 -1 32 4 32 9 0 11 -5 11 -40 0z"/>
<path d="M2516 2913 c-12 -12 -6 -33 9 -33 8 0 15 6 15 14 0 17 -14 28 -24 19z"/>
<path d="M8042 2900 c0 -14 2 -19 5 -12 2 6 2 18 0 25 -3 6 -5 1 -5 -13z"/>
<path d="M3494 2899 c-3 -6 -1 -16 5 -22 8 -8 11 -5 11 11 0 24 -5 28 -16 11z"/>
<path d="M6880 2890 c0 -5 5 -10 10 -10 6 0 10 5 10 10 0 6 -4 10 -10 10 -5 0
-10 -4 -10 -10z"/>
<path d="M7658 2893 c7 -3 16 -2 19 1 4 3 -2 6 -13 5 -11 0 -14 -3 -6 -6z"/>
<path d="M9715 2889 c-4 -6 -5 -12 -2 -15 7 -7 37 7 37 17 0 13 -27 11 -35 -2z"/>
<path d="M1637 2877 c-42 -10 -44 -27 -4 -41 33 -12 65 12 51 36 -7 11 -17 12
-47 5z"/>
<path d="M7755 2860 c-3 -5 3 -10 14 -10 12 0 21 5 21 10 0 6 -6 10 -14 10 -8
0 -18 -4 -21 -10z"/>
<path d="M2475 2841 c-3 -11 -17 -26 -30 -35 -14 -9 -25 -25 -25 -36 0 -10 -8
-25 -19 -32 -24 -17 -37 -58 -19 -58 25 0 58 31 58 54 0 13 7 26 15 30 8 3 15
15 15 26 0 11 7 20 15 20 9 0 15 9 15 25 0 29 -16 33 -25 6z"/>
<path d="M4187 2842 c1 -8 3 -16 3 -18 0 -2 7 -4 15 -4 8 0 15 5 15 10 0 6 -6
10 -14 10 -8 0 -16 3 -19 8 -2 4 -2 1 0 -6z"/>
<path d="M9630 2849 c0 -5 5 -7 10 -4 6 3 10 8 10 11 0 2 -4 4 -10 4 -5 0 -10
-5 -10 -11z"/>
<path d="M7417 2830 c3 -11 9 -20 14 -20 5 0 9 9 9 20 0 11 -6 20 -14 20 -9 0
-12 -7 -9 -20z"/>
<path d="M7862 2828 c5 -15 58 -24 58 -10 0 11 -24 22 -47 22 -8 0 -13 -6 -11
-12z"/>
<path d="M4445 2820 c3 -5 8 -10 11 -10 2 0 4 5 4 10 0 6 -5 10 -11 10 -5 0
-7 -4 -4 -10z"/>
<path d="M1630 2784 c0 -8 5 -12 10 -9 6 3 10 10 10 16 0 5 -4 9 -10 9 -5 0
-10 -7 -10 -16z"/>
<path d="M7930 2790 c0 -5 5 -10 10 -10 6 0 10 5 10 10 0 6 -4 10 -10 10 -5 0
-10 -4 -10 -10z"/>
<path d="M7994 2746 c-5 -29 -1 -41 22 -70 28 -35 29 -35 40 -14 14 26 8 48
-18 66 -10 7 -18 22 -18 33 0 32 -19 21 -26 -15z"/>
<path d="M8162 2768 c-7 -7 -12 -18 -12 -24 0 -7 -8 -15 -17 -17 -10 -3 -3 -5
15 -6 20 -1 41 7 53 18 l21 19 -20 11 c-26 14 -25 14 -40 -1z"/>
<path d="M1595 2731 c-17 -7 -17 -9 -3 -17 8 -5 21 -21 29 -36 l14 -26 25 20
c22 18 23 21 7 29 -9 6 -17 17 -17 24 0 16 -23 18 -55 6z"/>
<path d="M6851 2713 c0 -7 -8 -13 -16 -13 -16 0 -20 -15 -7 -24 15 -9 34 11
29 30 -3 11 -5 13 -6 7z"/>
<path d="M6418 2675 c-46 -41 -50 -62 -10 -41 36 19 55 41 50 61 -2 11 -12 7
-40 -20z"/>
<path d="M7967 2673 c-4 -3 -7 -15 -7 -25 0 -26 24 -17 28 10 3 21 -8 29 -21
15z"/>
<path d="M7361 2614 c0 -11 3 -14 6 -6 3 7 2 16 -1 19 -3 4 -6 -2 -5 -13z"/>
<path d="M8301 2555 c-6 -37 -10 -70 -7 -72 21 -21 44 74 29 115 -8 20 -11 13
-22 -43z"/>
<path d="M4345 2520 c-4 -7 2 -25 14 -41 11 -15 21 -36 21 -46 0 -15 2 -16 10
-3 16 25 11 55 -14 79 -17 16 -26 19 -31 11z"/>
<path d="M6715 2450 c3 -5 8 -10 11 -10 2 0 4 5 4 10 0 6 -5 10 -11 10 -5 0
-7 -4 -4 -10z"/>
<path d="M8340 2400 c0 -11 6 -23 13 -26 7 -2 13 -14 14 -25 2 -29 12 -36 23
-19 15 24 11 41 -10 47 -11 3 -20 11 -20 19 0 7 -4 16 -10 19 -5 3 -10 -3 -10
-15z"/>
<path d="M5876 2321 c-8 -13 23 -23 47 -15 16 5 17 8 6 15 -18 11 -46 11 -53
0z"/>
<path d="M7485 2250 c-3 -5 1 -10 9 -10 9 0 16 5 16 10 0 6 -4 10 -9 10 -6 0
-13 -4 -16 -10z"/>
<path d="M8412 1860 c0 -19 2 -27 5 -17 2 9 2 25 0 35 -3 9 -5 1 -5 -18z"/>
<path d="M8411 1674 c0 -11 3 -14 6 -6 3 7 2 16 -1 19 -3 4 -6 -2 -5 -13z"/>
<path d="M8473 1654 c-3 -8 -1 -20 6 -27 8 -8 11 -4 11 16 0 30 -7 35 -17 11z"/>
<path d="M4240 1368 c0 -9 5 -20 10 -23 13 -8 13 5 0 25 -8 13 -10 13 -10 -2z"/>
<path d="M4545 1341 c-3 -5 -1 -12 5 -16 5 -3 10 1 10 9 0 18 -6 21 -15 7z"/>
<path d="M4381 1134 c0 -11 3 -14 6 -6 3 7 2 16 -1 19 -3 4 -6 -2 -5 -13z"/>
<path d="M8512 935 c0 -16 2 -22 5 -12 2 9 2 23 0 30 -3 6 -5 -1 -5 -18z"/>
<path d="M5218 823 c6 -2 18 -2 25 0 6 3 1 5 -13 5 -14 0 -19 -2 -12 -5z"/>
<path d="M4888 753 c7 -3 16 -2 19 1 4 3 -2 6 -13 5 -11 0 -14 -3 -6 -6z"/>
<path d="M8751 624 c0 -11 3 -14 6 -6 3 7 2 16 -1 19 -3 4 -6 -2 -5 -13z"/>
<path d="M2921 443 c-1 -7 -8 -13 -16 -13 -21 0 -19 -22 6 -48 20 -22 39 -22
39 1 -1 18 -28 74 -29 60z"/>
</g>
</svg>
